<?xml version="1.0" standalone="no"?>
<!DOCTYPE svg PUBLIC "-//W3C//DTD SVG 20010904//EN"
 "http://www.w3.org/TR/2001/REC-SVG-20010904/DTD/svg10.dtd">
<svg version="1.0" xmlns="http://www.w3.org/2000/svg"
 width="700.000000pt" height="700.000000pt" viewBox="0 0 700.000000 700.000000"
 preserveAspectRatio="xMidYMid meet">
<metadata>
Created by potrace 1.11, written by Peter Selinger 2001-2013
</metadata>
<g transform="translate(0.000000,700.000000) scale(0.100000,-0.100000)"
fill="#000000" stroke="none">
<path d="M6324 6984 c-252 -44 -513 -161 -741 -333 -34 -25 -382 -366 -773
-757 l-712 -711 -87 42 c-102 51 -648 269 -671 268 -12 -1 -339 115 -410 144
-8 3 -19 7 -25 7 -5 1 -10 33 -11 71 -4 217 -226 358 -419 267 -54 -26 -126
-90 -137 -122 -3 -9 -55 5 -189 50 l-185 62 2 60 c1 71 -16 127 -56 181 -58
80 -133 118 -235 122 -122 4 -205 -47 -281 -173 -2 -3 -267 74 -409 118 -121
37 -371 90 -427 90 -23 0 -69 -42 -258 -230 -126 -127 -240 -247 -253 -268
-35 -55 -50 -123 -43 -188 10 -98 52 -164 146 -235 19 -15 121 -94 225 -176
105 -82 352 -276 550 -432 198 -155 374 -292 390 -305 17 -13 278 -218 580
-456 303 -237 565 -443 583 -458 l33 -27 -488 -489 c-498 -499 -568 -573 -669
-708 l-58 -78 -26 24 c-23 22 -68 41 -119 51 -13 2 -30 6 -39 9 -9 3 -37 8
-62 11 -24 4 -47 8 -50 10 -3 2 -33 7 -65 10 -33 4 -62 9 -65 10 -3 2 -34 6
-69 10 -34 4 -70 8 -80 10 -49 9 -210 19 -318 20 l-122 0 -125 -127 c-70 -70
-131 -139 -136 -153 -15 -40 -12 -108 6 -135 10 -14 173 -182 363 -373 190
-191 345 -353 344 -360 -1 -7 -17 -57 -36 -112 -46 -132 -69 -242 -70 -341 -2
-184 102 -276 296 -261 110 9 200 30 331 78 44 16 85 29 91 29 6 0 157 -147
336 -326 178 -179 341 -339 361 -355 41 -33 89 -45 143 -35 28 6 63 34 168
137 l132 131 0 131 c-1 121 -8 239 -20 327 -3 19 -7 58 -10 85 -24 209 -69
405 -102 443 -23 26 -23 27 -5 42 11 8 55 43 99 77 44 35 91 72 104 83 13 11
254 250 535 530 l511 509 114 -146 c63 -80 126 -160 140 -177 24 -29 944
-1200 1298 -1651 90 -116 183 -233 205 -261 23 -29 64 -80 91 -115 96 -122
151 -153 270 -154 128 0 151 15 428 294 231 231 235 237 232 273 -14 136 -89
432 -184 728 -23 69 -41 130 -40 135 0 6 24 25 53 44 189 119 173 406 -29 510
-52 27 -118 38 -172 31 -24 -4 -43 -6 -43 -5 0 1 -28 82 -61 181 l-62 178 22
16 c96 67 138 134 148 235 7 75 -6 129 -48 190 -60 90 -131 129 -239 132 -41
1 -78 3 -81 3 -4 0 -16 28 -28 63 -12 34 -25 69 -28 77 -3 8 -14 35 -23 60
-85 230 -149 398 -161 425 -5 11 -41 101 -80 200 -39 99 -87 210 -106 246
l-34 67 704 703 c387 387 732 739 766 782 203 259 343 621 345 892 2 197 -25
287 -115 388 -59 68 -129 107 -239 135 -40 10 -253 8 -316 -4z"/>
</g>
</svg>
